<?xml version="1.0" encoding="UTF-8"?>
<svg width="32px" height="32px" viewBox="0 0 32 32" version="1.1" xmlns="http://www.w3.org/2000/svg">
    <title>Twitter AI</title>
    <g stroke="none" stroke-width="1" fill="none" fill-rule="evenodd">
        <circle fill="#1DA1F2" cx="16" cy="16" r="16"/>
        <path d="M24,12 C23.4,12.3 22.8,12.4 22.1,12.5 C22.8,12.1 23.3,11.5 23.5,10.7 C22.9,11.1 22.2,11.3 21.4,11.5 C20.8,10.9 19.9,10.5 19,10.5 C17.3,10.5 15.8,12 15.8,13.8 C15.8,14.1 15.8,14.3 15.9,14.5 C13.2,14.4 10.7,13.1 9,11.1 C8.7,11.6 8.5,12.1 8.5,12.7 C8.5,13.8 9.1,14.8 9.9,15.3 C9.3,15.3 8.8,15.2 8.3,14.9 C8.3,14.9 8.3,14.9 8.3,15 C8.3,16.6 9.4,17.9 10.9,18.2 C10.6,18.3 10.3,18.3 10,18.3 C9.8,18.3 9.6,18.3 9.4,18.2 C9.8,19.5 11,20.4 12.4,20.4 C11.3,21.3 9.9,21.8 8.4,21.8 C8.1,21.8 7.8,21.8 7.5,21.7 C8.9,22.7 10.6,23.2 12.4,23.2 C19,23.2 22.7,17.7 22.7,12.9 C22.7,12.8 22.7,12.6 22.7,12.5 C23.4,12.1 24,11.6 24,12 Z" fill="#FFFFFF"/>
    </g>
</svg> 